<svg width="44" height="44" viewBox="0 0 44 44" fill="none" xmlns="http://www.w3.org/2000/svg">
<g opacity="0.1" clip-path="url(#clip0)">
<path d="M43.9571 12.9361C43.854 10.5982 43.4759 8.99095 42.9343 7.59822C42.3756 6.11988 41.5161 4.79632 40.3899 3.69603C39.2897 2.57863 37.9574 1.71036 36.4962 1.16038C35.0954 0.618804 33.4965 0.240739 31.1586 0.137661C28.8032 0.0258534 28.0555 0 22.0817 0C16.1079 0 15.3601 0.0258534 13.0135 0.128931C10.6756 0.232009 9.06834 0.61041 7.67595 1.15165C6.19727 1.71036 4.87371 2.5699 3.77343 3.69603C2.65602 4.79632 1.78808 6.12861 1.23778 7.58983C0.696196 8.99095 0.318132 10.5895 0.215054 12.9274C0.103246 15.2827 0.0773926 16.0305 0.0773926 22.0043C0.0773926 27.9781 0.103246 28.7259 0.206324 31.0725C0.309402 33.4104 0.687802 35.0176 1.22938 36.4104C1.78808 37.8887 2.65602 39.2123 3.77343 40.3126C4.87371 41.43 6.206 42.2982 7.66722 42.8482C9.06834 43.3898 10.6669 43.7679 13.0051 43.8709C15.3514 43.9743 16.0995 43.9999 22.0733 43.9999C28.0471 43.9999 28.7949 43.9743 31.1415 43.8709C33.4794 43.7679 35.0866 43.3898 36.479 42.8482C39.4361 41.7049 41.7739 39.3671 42.9172 36.4104C43.4584 35.0092 43.8369 33.4104 43.9399 31.0725C44.043 28.7259 44.0689 27.9781 44.0689 22.0043C44.0689 16.0305 44.0601 15.2827 43.9571 12.9361ZM39.9948 30.9006C39.9001 33.0494 39.5391 34.2098 39.2383 34.9834C38.499 36.9002 36.9776 38.4216 35.0608 39.1609C34.2872 39.4617 33.1184 39.8227 30.978 39.917C28.6572 40.0204 27.9612 40.046 22.0904 40.046C16.2197 40.046 15.5149 40.0204 13.2025 39.917C11.0537 39.8227 9.8933 39.4617 9.11972 39.1609C8.16582 38.8084 7.29755 38.2497 6.59279 37.519C5.86218 36.8056 5.30348 35.946 4.95093 34.9921C4.65009 34.2185 4.28915 33.0494 4.1948 30.9093C4.09139 28.5885 4.06587 27.8922 4.06587 22.0214C4.06587 16.1507 4.09139 15.4459 4.1948 13.1339C4.28915 10.985 4.65009 9.82464 4.95093 9.05105C5.30348 8.09683 5.86218 7.22889 6.60152 6.5238C7.31468 5.79318 8.17422 5.23448 9.12845 4.88227C9.90203 4.58143 11.0711 4.22049 13.2113 4.12581C15.532 4.02273 16.2284 3.99687 22.0988 3.99687C27.9783 3.99687 28.6743 4.02273 30.9867 4.12581C33.1355 4.22049 34.2959 4.58143 35.0695 4.88227C36.0234 5.23448 36.8917 5.79318 37.5964 6.5238C38.327 7.23728 38.8857 8.09683 39.2383 9.05105C39.5391 9.82464 39.9001 10.9934 39.9948 13.1339C40.0978 15.4546 40.1237 16.1507 40.1237 22.0214C40.1237 27.8922 40.0978 28.5798 39.9948 30.9006Z" fill="white"/>
<path d="M22.0817 10.7014C15.8416 10.7014 10.7787 15.764 10.7787 22.0044C10.7787 28.2448 15.8416 33.3074 22.0817 33.3074C28.3221 33.3074 33.3847 28.2448 33.3847 22.0044C33.3847 15.764 28.3221 10.7014 22.0817 10.7014ZM22.0817 29.3364C18.0334 29.3364 14.7497 26.053 14.7497 22.0044C14.7497 17.9558 18.0334 14.6724 22.0817 14.6724C26.1303 14.6724 29.4136 17.9558 29.4136 22.0044C29.4136 26.053 26.1303 29.3364 22.0817 29.3364V29.3364Z" fill="white"/>
<path d="M36.4705 10.2545C36.4705 11.7116 35.289 12.8932 33.8315 12.8932C32.3743 12.8932 31.1927 11.7116 31.1927 10.2545C31.1927 8.79692 32.3743 7.61572 33.8315 7.61572C35.289 7.61572 36.4705 8.79692 36.4705 10.2545V10.2545Z" fill="white"/>
</g>
<defs>
<clipPath id="clip0">
<rect width="44" height="44" fill="white"/>
</clipPath>
</defs>
</svg>
