<svg width="198" height="191" viewBox="0 0 198 191" fill="none" xmlns="http://www.w3.org/2000/svg">
<path d="M176.556 95.5C176.556 137.081 141.742 171 98.5317 171C55.3216 171 20.5079 137.081 20.5079 95.5C20.5079 53.9194 55.3216 20 98.5317 20C141.742 20 176.556 53.9194 176.556 95.5Z" stroke="white" stroke-width="8"/>
<path d="M196.563 95.5C196.563 147.952 152.688 190.5 98.5317 190.5C44.3755 190.5 0.5 147.952 0.5 95.5C0.5 43.0476 44.3755 0.5 98.5317 0.5C152.688 0.5 196.563 43.0476 196.563 95.5Z" stroke="white" stroke-opacity="0.2"/>
<path d="M136.19 95.5L79.7023 127.11L79.7023 63.8901L136.19 95.5Z" fill="white"/>
</svg>
